<svg xmlns="http://www.w3.org/2000/svg" xmlns:xlink="http://www.w3.org/1999/xlink" width="1080" zoomAndPan="magnify" viewBox="0 0 810 809.999993" height="1080" preserveAspectRatio="xMidYMid meet" version="1.0"><defs><g/><clipPath id="0370acca1e"><path d="M 67 75 L 523 75 L 523 531 L 67 531 Z M 67 75 " clip-rule="nonzero"/></clipPath><clipPath id="9d229ae49d"><path d="M 326.433594 55.65625 L 542.03125 271.253906 L 262.554688 550.734375 L 46.957031 335.136719 Z M 326.433594 55.65625 " clip-rule="nonzero"/></clipPath><clipPath id="23ca2e0dc4"><path d="M 508.960938 238.183594 L 359.503906 88.726562 C 348.238281 77.460938 331.914062 72.882812 316.429688 76.648438 C 300.949219 80.414062 288.550781 91.976562 283.714844 107.160156 L 261.867188 175.769531 C 247.59375 220.59375 212.472656 255.71875 167.644531 269.992188 L 99.035156 291.839844 C 83.851562 296.675781 72.289062 309.074219 68.523438 324.554688 C 64.757812 340.039062 69.335938 356.363281 80.605469 367.628906 L 230.0625 517.085938 C 241.328125 528.351562 257.652344 532.929688 273.136719 529.167969 C 288.617188 525.402344 301.015625 513.835938 305.851562 498.65625 L 327.699219 430.042969 C 341.972656 385.21875 377.097656 350.097656 421.921875 335.824219 L 490.53125 313.976562 C 505.714844 309.140625 517.277344 296.742188 521.042969 281.257812 C 524.808594 265.777344 520.230469 249.453125 508.960938 238.183594 Z M 508.960938 238.183594 " clip-rule="nonzero"/></clipPath><clipPath id="45e86366dc"><path d="M 287 75 L 743 75 L 743 531 L 287 531 Z M 287 75 " clip-rule="nonzero"/></clipPath><clipPath id="415a11ddbc"><path d="M 762.1875 334.554688 L 546.589844 550.152344 L 267.109375 270.671875 L 482.707031 55.074219 Z M 762.1875 334.554688 " clip-rule="nonzero"/></clipPath><clipPath id="c63e079df6"><path d="M 579.660156 517.082031 L 729.117188 367.625 C 740.382812 356.359375 744.960938 340.03125 741.195312 324.550781 C 737.429688 309.066406 725.867188 296.667969 710.683594 291.832031 L 642.074219 269.984375 C 597.25 255.710938 562.128906 220.589844 547.851562 175.765625 L 526.003906 107.152344 C 521.171875 91.972656 508.769531 80.410156 493.289062 76.644531 C 477.804688 72.878906 461.480469 77.457031 450.214844 88.722656 L 300.757812 238.179688 C 289.492188 249.445312 284.914062 265.773438 288.675781 281.253906 C 292.441406 296.734375 304.007812 309.136719 319.1875 313.96875 L 387.800781 335.820312 C 432.625 350.09375 467.746094 385.214844 482.019531 430.039062 L 503.867188 498.648438 C 508.703125 513.832031 521.101562 525.394531 536.585938 529.160156 C 552.066406 532.925781 568.390625 528.347656 579.660156 517.082031 Z M 579.660156 517.082031 " clip-rule="nonzero"/></clipPath><clipPath id="2b19794901"><path d="M 56.1875 289.113281 L 754 289.113281 L 754 810 L 56.1875 810 Z M 56.1875 289.113281 " clip-rule="nonzero"/></clipPath><clipPath id="726edfda22"><path d="M 119.1875 289.113281 L 690.8125 289.113281 C 707.519531 289.113281 723.546875 295.75 735.359375 307.566406 C 747.175781 319.378906 753.8125 335.402344 753.8125 352.113281 L 753.8125 747 C 753.8125 763.707031 747.175781 779.734375 735.359375 791.546875 C 723.546875 803.363281 707.519531 810 690.8125 810 L 119.1875 810 C 102.476562 810 86.453125 803.363281 74.640625 791.546875 C 62.824219 779.734375 56.1875 763.707031 56.1875 747 L 56.1875 352.113281 C 56.1875 335.402344 62.824219 319.378906 74.640625 307.566406 C 86.453125 295.75 102.476562 289.113281 119.1875 289.113281 Z M 119.1875 289.113281 " clip-rule="nonzero"/></clipPath><clipPath id="e8d0d35802"><path d="M 283.5 0 L 526.5 0 L 526.5 243 L 283.5 243 Z M 283.5 0 " clip-rule="nonzero"/></clipPath><clipPath id="a07263d027"><path d="M 405 0 C 337.898438 0 283.5 54.398438 283.5 121.5 C 283.5 188.601562 337.898438 243 405 243 C 472.101562 243 526.5 188.601562 526.5 121.5 C 526.5 54.398438 472.101562 0 405 0 Z M 405 0 " clip-rule="nonzero"/></clipPath><clipPath id="de71dd8219"><path d="M 340.488281 56.988281 L 469.511719 56.988281 L 469.511719 186.011719 L 340.488281 186.011719 Z M 340.488281 56.988281 " clip-rule="nonzero"/></clipPath><clipPath id="9121734955"><path d="M 405 56.988281 C 369.371094 56.988281 340.488281 85.871094 340.488281 121.5 C 340.488281 157.128906 369.371094 186.011719 405 186.011719 C 440.628906 186.011719 469.511719 157.128906 469.511719 121.5 C 469.511719 85.871094 440.628906 56.988281 405 56.988281 Z M 405 56.988281 " clip-rule="nonzero"/></clipPath></defs><g clip-path="url(#0370acca1e)"><g clip-path="url(#9d229ae49d)"><g clip-path="url(#23ca2e0dc4)"><path fill="#ff914d" d="M 306.472656 35.695312 L 561.996094 291.21875 L 283.515625 569.699219 L 27.992188 314.175781 Z M 306.472656 35.695312 " fill-opacity="1" fill-rule="nonzero"/></g></g></g><g clip-path="url(#45e86366dc)"><g clip-path="url(#415a11ddbc)"><g clip-path="url(#c63e079df6)"><path fill="#ff914d" d="M 782.148438 314.589844 L 526.625 570.113281 L 248.144531 291.632812 L 503.667969 36.109375 Z M 782.148438 314.589844 " fill-opacity="1" fill-rule="nonzero"/></g></g></g><g clip-path="url(#2b19794901)"><g clip-path="url(#726edfda22)"><path fill="#ff914d" d="M 56.1875 289.113281 L 754.09375 289.113281 L 754.09375 810 L 56.1875 810 Z M 56.1875 289.113281 " fill-opacity="1" fill-rule="nonzero"/></g></g><g fill="#ffffff" fill-opacity="1"><g transform="translate(80.679338, 659.612682)"><g><path d="M 150.609375 -47.46875 L 67.390625 -47.46875 L 51.578125 0 L 1.109375 0 L 86.859375 -230.34375 L 130.828125 -230.34375 L 217.0625 0 L 166.59375 0 Z M 80.203125 -85.90625 L 137.796875 -85.90625 L 108.84375 -172.125 Z M 80.203125 -85.90625 "/></g></g><g transform="translate(298.678181, 659.612682)"><g><path d="M 106.46875 -80.203125 L 17.40625 -80.203125 L 17.40625 -117.078125 L 106.46875 -117.078125 Z M 106.46875 -80.203125 "/></g></g><g transform="translate(424.288545, 659.612682)"><g><path d="M 71.03125 0 L 23.578125 0 L 23.578125 -230.34375 L 71.03125 -230.34375 Z M 71.03125 0 "/></g></g><g transform="translate(518.733618, 659.612682)"><g><path d="M 20.5625 0 L 20.5625 -230.34375 L 91.4375 -230.34375 C 111.6875 -230.34375 129.800781 -225.78125 145.78125 -216.65625 C 161.757812 -207.53125 174.226562 -194.554688 183.1875 -177.734375 C 192.15625 -160.921875 196.640625 -141.804688 196.640625 -120.390625 L 196.640625 -109.796875 C 196.640625 -88.378906 192.238281 -69.335938 183.4375 -52.671875 C 174.632812 -36.015625 162.21875 -23.097656 146.1875 -13.921875 C 130.15625 -4.742188 112.066406 -0.101562 91.921875 0 Z M 68.03125 -191.90625 L 68.03125 -38.125 L 90.96875 -38.125 C 109.53125 -38.125 123.710938 -44.1875 133.515625 -56.3125 C 143.328125 -68.445312 148.335938 -85.800781 148.546875 -108.375 L 148.546875 -120.546875 C 148.546875 -143.960938 143.691406 -161.707031 133.984375 -173.78125 C 124.285156 -185.863281 110.101562 -191.90625 91.4375 -191.90625 Z M 68.03125 -191.90625 "/></g></g></g><g clip-path="url(#e8d0d35802)"><g clip-path="url(#a07263d027)"><path fill="#ff914d" d="M 283.5 0 L 526.5 0 L 526.5 243 L 283.5 243 Z M 283.5 0 " fill-opacity="1" fill-rule="nonzero"/></g></g><g clip-path="url(#de71dd8219)"><g clip-path="url(#9121734955)"><path fill="#ffffff" d="M 340.488281 56.988281 L 469.511719 56.988281 L 469.511719 186.011719 L 340.488281 186.011719 Z M 340.488281 56.988281 " fill-opacity="1" fill-rule="nonzero"/></g></g></svg>