<?xml version="1.0" encoding="UTF-8" standalone="no" ?>
<!DOCTYPE svg PUBLIC "-//W3C//DTD SVG 1.1//EN" "http://www.w3.org/Graphics/SVG/1.1/DTD/svg11.dtd">
<svg xmlns="http://www.w3.org/2000/svg" xmlns:xlink="http://www.w3.org/1999/xlink" version="1.1" width="1080" height="1080" viewBox="0 0 1080 1080" xml:space="preserve">
<desc>Created with Fabric.js 5.2.4</desc>
<defs>
</defs>
<rect x="0" y="0" width="100%" height="100%" fill="transparent"></rect>
<g transform="matrix(1 0 0 1 540 540)" id="2d6b867c-8eef-4943-bf4a-d00dc6467631"  >
<rect style="stroke: none; stroke-width: 1; stroke-dasharray: none; stroke-linecap: butt; stroke-dashoffset: 0; stroke-linejoin: miter; stroke-miterlimit: 4; fill: rgb(255,255,255); fill-rule: nonzero; opacity: 1; visibility: hidden;" vector-effect="non-scaling-stroke"  x="-540" y="-540" rx="0" ry="0" width="1080" height="1080" />
</g>
<g transform="matrix(1 0 0 1 540 540)" id="54f91b79-be90-45d3-8e28-9418670939d3"  >
</g>
<g transform="matrix(1 0 0 1 540 540)"  >
<path style="stroke: none; stroke-width: 1; stroke-dasharray: none; stroke-linecap: butt; stroke-dashoffset: 0; stroke-linejoin: miter; stroke-miterlimit: 4; fill: rgb(255,157,23); fill-rule: nonzero; opacity: 1;" vector-effect="non-scaling-stroke"  transform=" translate(-512.68, -506.73)" d="M 349.089355 388.005768 C 355.851257 377.704468 362.64563 367.424133 369.333679 357.075134 C 370.161835 355.793701 370.424927 354.147064 371.460449 352.241028 C 372.270599 350.813599 372.570221 349.814789 372.869812 348.815979 C 372.869812 348.815979 372.901794 348.925323 373.198608 348.819489 C 374.956543 344.084167 376.417633 339.454651 377.878723 334.825134 C 377.878693 334.825134 377.914612 334.932617 378.192139 334.781677 C 379.693756 328.755646 380.917847 322.880554 382.141937 317.005493 C 383.94165 298.193726 385.741364 279.381927 387.808655 260.644928 C 388.076233 263.784607 388.076233 266.849487 388.076233 269.914398 C 388.993866 264.16806 389.098572 258.427277 388.961792 252.692245 C 388.845459 247.817245 388.450745 242.948914 388.179169 238.077621 C 390.099915 226.965607 392.020691 215.853607 394.392517 204.282532 C 395.854065 200.491364 396.864502 197.159271 397.874939 193.827179 C 397.874939 193.827179 397.904358 193.922379 398.199463 193.820007 C 400.60257 189.069733 402.710571 184.421829 404.818542 179.773911 C 404.818542 179.773911 404.85202 179.900085 405.100677 179.783966 C 405.538177 179.06604 405.727051 178.464218 405.915924 177.862396 C 405.915924 177.862396 405.952789 177.946762 406.28009 177.917084 C 407.023468 176.858231 407.439545 175.829056 407.855652 174.799881 C 407.855652 174.799881 407.884735 174.916763 408.16626 174.825287 C 408.922485 173.760941 409.397247 172.788071 409.872009 171.815216 C 409.872009 171.815216 409.897675 171.927368 410.177856 171.833771 C 410.939423 170.775299 411.420776 169.81044 411.902161 168.845581 C 411.902161 168.845581 411.924286 168.944702 412.208618 168.844849 C 413.296173 167.444839 414.099335 166.144684 414.902496 164.844513 C 414.902496 164.844513 414.930145 164.934296 415.252289 164.908722 C 415.91095 164.122452 416.247467 163.361725 416.583984 162.601013 C 416.584015 162.601013 416.8508 162.764587 417.016693 162.696014 C 417.253693 162.265564 417.324829 161.903702 417.395966 161.54184 C 417.395966 161.54184 417.498322 161.51651 417.83551 161.558716 C 418.752258 160.685394 419.331787 159.769882 419.911316 158.85437 C 419.911316 158.85437 419.933441 158.946518 420.148804 158.850433 C 420.554077 158.44632 420.744049 158.138275 420.934021 157.830231 C 420.934021 157.830246 420.946655 157.949051 421.152893 157.847229 C 421.539856 157.427139 421.720551 157.108887 421.901245 156.790634 C 421.901245 156.790634 421.919678 156.923798 422.126373 156.827606 C 422.515747 156.409103 422.698425 156.086823 422.881104 155.764526 C 422.881104 155.764526 422.90329 155.907578 423.110107 155.814484 C 423.497772 155.394562 423.67868 155.067734 423.859558 154.740906 C 423.859558 154.740906 423.88559 154.887115 424.095245 154.806549 C 424.500092 154.406647 424.695312 154.087311 424.890533 153.767975 C 424.890533 153.76799 424.911316 153.912216 425.11676 153.822845 C 425.513092 153.413864 425.703918 153.094254 425.894775 152.774658 C 425.894775 152.774658 425.914581 152.916168 426.12085 152.826385 C 426.516998 152.417038 426.706848 152.097473 426.896729 151.777924 C 426.896759 151.777924 426.918274 151.918625 427.11908 151.828522 C 427.523621 151.432846 427.727356 151.127289 427.931091 150.821732 C 427.931091 150.821732 427.938904 150.925049 428.236206 150.909576 C 428.999573 150.221176 429.465698 149.548279 429.931824 148.875366 C 429.931793 148.875351 429.9552 148.961823 430.252228 148.932251 C 430.809845 148.424652 431.070435 147.946625 431.331024 147.468613 C 431.331024 147.468613 431.457092 147.430862 431.811646 147.500458 C 432.691986 146.921417 433.217834 146.272812 433.743652 145.624176 C 433.743652 145.624176 433.80722 145.776657 434.024109 145.740143 C 434.458679 145.392746 434.676361 145.081863 434.894043 144.770996 C 434.894043 144.770996 434.907715 144.888 435.191223 144.884583 C 435.703278 144.417877 435.931793 143.954575 436.160339 143.491287 C 436.160339 143.491287 436.329193 143.297302 436.756134 143.398743 C 438.191071 142.492981 439.199036 141.485764 440.207031 140.478546 C 440.207031 140.478546 440.378876 140.306915 440.800812 140.453613 C 441.783722 140.013046 442.344696 139.425781 442.90567 138.838501 C 442.90567 138.838516 442.930695 138.93161 443.231842 138.927673 C 444.334229 138.225586 445.135468 137.527451 445.936737 136.829315 C 445.936737 136.82933 445.94223 136.928741 446.252625 136.922852 C 448.017639 135.887253 449.472321 134.857513 450.926971 133.827789 C 450.926971 133.827789 450.933899 133.921997 451.220215 133.918198 C 451.96994 133.528244 452.433319 133.14209 452.896698 132.755951 C 452.896698 132.755951 452.913635 132.876572 453.240479 132.908722 C 456.018433 131.559769 458.469574 130.17868 460.920685 128.797577 C 460.920685 128.797577 460.930481 128.906677 461.286072 128.93277 C 466.589874 127.406792 471.565887 125.936844 476.477051 124.275101 C 480.024078 123.074913 483.484833 121.619797 486.98407 120.278381 C 498.369476 119.521851 509.754852 118.765327 521.680969 118.465111 C 522.912231 119.273003 523.59552 119.915619 524.294495 119.933144 C 537.868408 120.273529 550.544189 124.326401 563.055054 129.131607 C 565.019836 129.88623 567.10376 130.330719 569.132568 130.91861 C 569.132568 130.91861 569.044617 130.943207 569.183228 131.186096 C 569.919434 131.597717 570.517029 131.766418 571.114563 131.935135 C 571.114563 131.935135 571.036926 131.957397 571.152893 132.245026 C 574.575378 134.310364 577.881836 136.088058 581.188293 137.865753 C 581.188293 137.865768 581.07959 137.892319 581.1745 138.175659 C 582.241882 138.928909 583.214417 139.398819 584.18689 139.868729 C 584.18689 139.868729 584.078064 139.892593 584.168213 140.169083 C 584.977417 140.688675 585.69635 140.931763 586.415344 141.174866 C 586.415344 141.174866 586.626953 141.295013 586.57666 141.700531 C 587.831665 142.797684 589.136841 143.489319 590.442078 144.180969 C 590.442078 144.180969 590.633057 144.309814 590.584595 144.700211 C 591.079346 145.358429 591.62262 145.626236 592.165894 145.894073 C 592.165894 145.894073 592.062927 145.916855 592.151855 146.186768 C 592.952454 146.876633 593.664124 147.296585 594.375793 147.716522 C 594.375793 147.716522 594.214294 147.760864 594.256104 148.040802 C 595.358276 148.973083 596.418579 149.625443 597.478882 150.277802 C 597.478882 150.277802 597.577332 150.405304 597.508057 150.787231 C 598.778564 152.153442 600.118286 153.137711 601.458008 154.121964 C 601.458008 154.121964 601.70575 154.282379 601.609009 154.718445 C 602.842957 156.220795 604.173584 157.287079 605.504211 158.353363 C 605.504211 158.353363 605.514893 158.469849 605.462646 158.832092 C 606.662354 160.429626 607.914368 161.664932 609.166321 162.900253 C 609.166321 162.900253 609.073914 162.928864 609.078369 163.245178 C 609.89209 164.210983 610.701477 164.860474 611.510803 165.509979 C 611.510803 165.509979 611.314331 165.673599 611.294678 165.970032 C 611.893372 166.820633 612.511658 167.374802 613.130005 167.928955 C 613.130005 167.928955 613.041199 167.952805 613.039673 168.287949 C 613.757874 169.374466 614.4776 170.125854 615.197327 170.877228 C 615.197327 170.877243 615.101379 170.909775 615.089111 171.211807 C 615.79126 172.309372 616.505676 173.104889 617.220093 173.900421 C 617.220093 173.900421 617.108276 173.917328 617.101074 174.210388 C 617.786682 175.313171 618.47937 176.122894 619.172119 176.932617 C 619.172119 176.932617 619.0755 176.937576 619.058289 177.276184 C 619.428467 178.862549 619.733826 180.143036 620.216125 181.352951 C 624.299866 191.596405 628.51709 201.788193 632.461487 212.084656 C 633.673767 215.249054 634.166138 218.689255 634.985474 222.452789 C 635.322693 231.668533 635.623291 240.436447 636.026489 249.199661 C 636.145813 251.79216 636.554321 254.371353 636.830322 256.956635 C 637.221985 258.833038 637.80127 260.692169 637.975708 262.588531 C 639.342529 277.449463 640.631775 292.317505 641.648438 307.843933 C 641.617126 309.994171 641.882263 311.483856 642.147461 312.973511 C 642.147461 312.973511 642.052734 312.975128 642.036499 313.36731 C 645.032715 324.897003 647.973206 336.054993 651.132263 347.150726 C 651.62915 348.896088 653.116272 350.359558 654.145508 351.953369 C 654.145508 351.953369 654.057068 351.95163 654.049561 352.304138 C 656.401794 357.090912 658.761536 361.525177 661.121277 365.959442 C 661.121277 365.959442 661.040466 365.96167 661.059448 366.249695 C 661.461426 366.996216 661.844482 367.454742 662.227539 367.913269 C 662.227539 367.913269 662.107971 367.925903 662.078491 368.239868 C 663.105896 370.0047 664.162781 371.455536 665.219666 372.906372 C 665.219666 372.906372 665.105469 372.922272 665.096558 373.215881 C 665.792847 374.312775 666.498108 375.115997 667.203369 375.91922 C 667.203369 375.91922 667.092712 375.932251 667.096924 376.22406 C 667.578918 376.856323 668.05658 377.196808 668.534241 377.537292 C 668.534241 377.537323 668.565063 377.644928 668.464478 377.903137 C 668.657593 378.402771 668.951294 378.644257 669.245056 378.885712 C 669.245056 378.885712 669.099792 378.908051 669.171509 379.110779 C 669.53479 379.530609 669.826294 379.747742 670.117798 379.964874 C 670.117798 379.964874 670.037903 379.96524 670.053589 380.272034 C 670.788879 381.351624 671.508606 382.12439 672.228333 382.897156 C 672.228333 382.897156 672.087158 382.919952 672.168457 383.119141 C 672.542542 383.531677 672.835327 383.744965 673.128052 383.958252 C 673.128052 383.958252 673.046692 383.958862 673.062317 384.286224 C 674.125854 385.69281 675.173767 386.772064 676.22168 387.851318 C 676.22168 387.851318 676.100708 387.887268 676.180481 388.101532 C 676.570007 388.516418 676.879761 388.717041 677.189514 388.917633 C 677.189514 388.917633 677.087036 388.928497 677.086365 389.235596 C 678.871155 391.234863 680.656616 392.927002 682.442078 394.619171 C 682.442078 394.619171 682.289124 394.714966 682.305542 394.985413 C 683.012268 395.74176 683.702515 396.227661 684.392761 396.713562 C 684.392761 396.713593 684.232788 396.778229 684.283752 397.00177 C 684.686646 397.383484 685.038574 397.541595 685.390503 397.699707 C 685.390503 397.699707 685.234924 397.746979 685.266296 398.023376 C 686.012024 398.73764 686.72644 399.175476 687.440796 399.613342 C 687.440796 399.613342 687.313538 399.70459 687.343384 399.945129 C 687.736511 400.295959 688.099792 400.406219 688.463074 400.516449 C 688.317444 400.674408 688.171814 400.832336 688.210999 401.06897 C 688.753418 401.237152 689.111023 401.32663 689.468689 401.416138 C 689.468689 401.416138 689.475037 401.520447 689.432678 401.847809 C 690.290588 402.768188 691.190918 403.361176 692.091187 403.954163 C 692.091187 403.954163 692.019897 403.987457 692.055908 404.294128 C 692.78656 405.029572 693.481262 405.458313 694.175903 405.887054 C 694.175903 405.887054 694.063477 405.915863 694.178894 406.138824 C 694.642822 406.545868 694.991394 406.72998 695.339905 406.914062 C 733.988586 433.075867 772.762207 459.05658 811.171631 485.565125 C 818.148804 490.380524 823.635864 497.355194 829.728027 503.783539 C 829.890259 504.371521 830.135193 504.509033 830.380188 504.646515 C 830.380188 504.646515 830.285339 504.807831 830.297485 505.00946 C 830.598022 505.449219 830.886292 505.687408 831.174622 505.925568 C 831.174622 505.925568 831.08429 505.932495 831.086914 506.225708 C 831.516052 506.944153 831.942566 507.369415 832.369141 507.794647 C 832.369141 507.794647 832.238892 507.843536 832.189453 508.134155 C 832.812073 509.60141 833.484192 510.778046 834.15625 511.954681 C 834.15625 511.954681 834.068298 511.959656 834.072388 512.249451 C 834.498535 512.964783 834.920532 513.390259 835.34259 513.815796 C 835.34259 513.815796 835.217957 513.860291 835.156982 514.166199 C 835.458923 515.298523 835.821777 516.124939 836.184631 516.951355 C 836.184631 516.951355 836.077148 516.955261 836.052002 517.38147 C 836.017883 616.850281 836.022278 715.892761 835.96759 814.935303 C 835.964233 821.045837 835.494873 827.156067 835.242249 833.266479 C 835.242249 833.266479 835.218506 833.095337 834.939819 833.263672 C 834.489197 834.684937 834.317261 835.937866 834.145325 837.190796 C 834.145325 837.190796 834.14856 837.068848 833.879761 837.245117 C 830.776062 844.325256 827.941101 851.229187 825.10614 858.133118 C 825.10614 858.133118 825.027466 858.031677 824.716309 858.088501 C 823.989563 859.153015 823.573975 860.160706 823.158447 861.168396 C 823.158447 861.168396 823.071045 861.05603 822.873657 861.194153 C 822.603333 861.678467 822.530334 862.024658 822.457397 862.370789 C 822.298767 862.301941 822.140259 862.233154 821.889282 862.289062 C 821.563171 862.98175 821.329468 863.549744 821.095825 864.117798 C 821.095886 864.117798 821.035583 864.032166 820.834045 864.157227 C 820.48407 864.601257 820.335632 864.920227 820.187195 865.239197 C 820.187195 865.239197 820.154724 865.135132 819.866455 865.221558 C 818.751404 866.580505 817.924561 867.852966 817.097717 869.125366 C 817.097717 869.125366 817.04541 869.039062 816.837585 869.157166 C 816.443481 869.581787 816.257263 869.888245 816.071045 870.194763 C 816.051331 870.515503 815.908203 870.765625 815.164551 871.099731 C 814.490112 871.558655 814.292725 871.862976 814.095337 872.167236 C 814.095276 872.167236 814.078796 872.078003 813.866699 872.17395 C 813.469116 872.567932 813.283691 872.866028 813.098267 873.164124 C 813.098267 873.164124 813.079529 873.075012 812.862549 873.179382 C 812.455811 873.592346 812.266174 873.901001 812.076538 874.209595 C 812.05365 874.536438 811.900513 874.782104 811.039795 875.018066 C 809.862915 875.88678 809.26355 876.684143 808.664185 877.481506 C 808.664185 877.481506 808.536377 877.562805 808.174927 877.504761 C 807.258972 878.042786 806.70459 878.638794 806.150208 879.234863 C 806.150208 879.234863 806.088684 879.114075 805.797729 879.120728 C 804.37738 880.152893 803.248108 881.178406 802.118774 882.203979 C 802.118774 882.203979 802.072876 882.092529 801.782043 882.102112 C 800.691162 882.797974 799.891113 883.484253 799.091064 884.170532 C 799.091064 884.170532 799.051025 884.064453 798.718445 884.061401 C 794.638184 886.12854 790.890442 888.198792 787.142761 890.268982 C 787.142761 890.268982 787.119507 890.16394 786.749634 890.123108 C 784.604126 890.427673 782.829468 890.778809 781.05249 891.117432 C 774.244995 892.414673 767.438171 894.82959 760.62854 894.838318 C 595.925781 895.049316 431.222687 895.005493 266.519684 894.977051 C 264.551208 894.976746 262.567383 894.668701 260.617157 894.344971 C 254.103806 893.263977 247.602509 892.110474 241.096588 890.984741 C 217.830505 882.336121 202.371414 865.882629 193.798813 842.902588 C 191.516144 836.783508 190.577179 830.163208 189.356567 823.046265 C 189.788559 821.000488 189.969727 819.681458 189.96994 818.362488 C 189.986313 720.508423 189.992249 622.654419 189.957428 524.800354 C 189.956863 523.210571 189.444397 521.62085 189.170807 520.031128 C 191.400208 505.901154 200.349792 495.97345 211.144257 488.145508 C 227.493118 476.289581 244.768677 465.719696 261.493042 454.371338 C 282.887573 439.853973 304.134521 425.118835 325.414948 410.433868 C 327.180023 409.215851 328.715454 407.664948 330.855103 406.35437 C 331.825348 405.845673 332.298096 405.251282 332.770813 404.65686 C 332.770782 404.65686 332.828308 404.815765 333.040771 404.761475 C 333.466736 404.389771 333.680237 404.072388 333.893768 403.755005 C 333.893768 403.755005 333.914856 403.911163 334.11438 403.826843 C 334.520935 403.434479 334.727936 403.126465 334.934967 402.818481 C 334.934967 402.818481 334.949493 402.948944 335.154602 402.847992 C 335.559448 402.431732 335.759247 402.116394 335.959045 401.801056 C 335.95459 401.469055 336.095734 401.219299 336.968201 400.995087 C 338.118011 400.1203 338.682129 399.302277 339.246246 398.484253 C 339.246246 398.484253 339.384888 398.37674 339.773285 398.460144 C 340.832489 397.538055 341.503296 396.532532 342.174103 395.527008 C 342.174103 395.527008 342.316132 395.356628 342.700806 395.415894 C 343.367737 394.942322 343.649963 394.409454 343.93219 393.876556 C 343.932159 393.876556 343.949127 393.963745 344.16037 393.851746 C 344.56778 393.43338 344.763947 393.126984 344.960144 392.820587 C 344.940857 392.493317 345.065704 392.235962 345.825134 391.896088 C 346.513611 391.420715 346.71167 391.097717 346.909698 390.774719 C 346.909698 390.774719 346.923767 390.926239 347.128662 390.822998 C 347.492798 390.376129 347.652008 390.03244 347.811218 389.688782 C 347.811218 389.688782 347.844604 389.861542 348.057434 389.768555 C 348.400757 389.310211 348.531219 388.944885 348.661682 388.579559 C 348.661682 388.579559 348.640442 388.802124 348.812225 388.763733 C 349.117065 388.708191 349.250153 388.69101 349.383209 388.673798 C 349.285248 388.451141 349.187286 388.228455 349.089355 388.005768 M 748.721252 552.671936 C 748.388855 552.505005 748.056519 552.338013 747.839417 552.143738 C 747.839417 552.143738 747.799194 552.255188 747.868225 551.532654 C 746.531921 550.715942 745.195679 549.899231 743.947937 549.06134 C 743.947937 549.06134 743.944092 549.152283 743.727539 548.622314 C 743.388733 548.473511 743.049927 548.324646 742.883484 548.149719 C 742.883484 548.149719 742.850586 548.320923 742.662903 547.687622 C 742.067261 547.482178 741.47168 547.276794 740.957764 547.033997 C 740.957764 547.033997 740.934753 547.12085 740.946533 546.516479 C 740.302368 546.323303 739.658264 546.130127 738.3255 545.824219 C 724.585876 537.28949 709.331787 533.503052 693.451111 533.161316 C 667.803528 532.609436 642.13678 532.946106 616.478149 532.907898 C 615.042175 532.905701 613.606201 532.907532 612.180115 532.907532 C 612.180115 603.639343 612.180115 673.848145 612.180115 744.767273 C 642.456421 744.160767 672.46814 744.562683 702.329163 742.63208 C 724.711853 741.185059 743.382751 730.358093 757.39386 712.403076 C 768.506348 698.16272 773.765137 681.614563 776.709351 663.457886 C 777.470642 656.927551 779.043518 650.369873 778.825195 643.872498 C 778.364319 630.157288 777.322693 616.432922 775.767151 602.798157 C 775.193054 597.766113 772.502808 592.975403 770.900146 588.073608 C 770.900146 588.073608 770.86261 588.190125 770.936096 587.450256 C 770.531067 586.682556 770.126038 585.914917 769.83075 585.120911 C 769.83075 585.120911 769.792297 585.22699 769.916199 584.437317 C 769.183594 583.004517 768.450989 581.571716 767.841248 580.110901 C 767.841248 580.110901 767.809509 580.232849 767.924316 579.45874 C 766.565063 576.989441 765.205811 574.520142 763.936951 572.048035 C 763.936951 572.048035 763.915161 572.135803 763.972778 571.371399 C 762.926453 569.946655 761.880127 568.521912 760.926941 567.069336 C 760.926941 567.069336 760.894775 567.161011 760.95697 566.401367 C 760.23175 565.648804 759.50647 564.896301 758.882629 564.105652 C 758.882629 564.105652 758.847656 564.20813 758.906067 563.495483 C 757.835022 562.391663 756.763977 561.287842 755.840454 560.146851 C 755.840454 560.146851 755.809753 560.295837 755.712769 559.723938 C 755.404053 559.51532 755.095337 559.306641 754.896179 559.083496 C 754.896179 559.083496 754.868835 559.190552 754.885071 558.513794 C 754.422058 558.298035 753.959106 558.082214 753.298462 557.707336 C 753.298462 557.707336 753.14502 557.505249 753.421631 556.90033 C 752.88385 556.617126 752.346069 556.333923 751.375366 555.952393 C 751.089539 555.789062 750.947815 555.542786 750.757507 554.67572 C 750.447632 554.470276 750.137756 554.264832 749.949097 554.050476 C 749.949097 554.050476 749.935669 554.171204 749.742188 553.639526 C 749.421997 553.46106 749.101746 553.282593 748.918152 553.085083 C 748.918152 553.085083 748.900146 553.221863 748.721252 552.671936 M 568.667297 202.806107 C 568.377686 202.567612 568.088135 202.329132 567.900208 202.079117 C 567.900208 202.079117 567.872009 202.17746 567.909973 201.471115 C 566.846619 200.365982 565.783264 199.260849 564.869934 198.121216 C 564.869934 198.121216 564.848877 198.273651 564.707947 197.70079 C 564.389465 197.491455 564.071045 197.28212 563.324219 196.955597 C 563.062439 196.765289 562.936218 196.508377 562.912903 195.508865 C 562.44104 195.290497 561.969116 195.072113 561.305664 194.693024 C 561.305664 194.693024 561.158997 194.490448 561.428528 193.892822 C 560.899719 193.610245 560.370911 193.327667 559.318054 192.878265 C 558.855469 192.329193 558.392944 191.780121 557.729614 190.683197 C 557.397156 190.505386 557.064697 190.327576 556.856628 190.131989 C 556.856628 190.131989 556.813721 190.250107 556.855896 189.509415 C 555.8797 189.021469 554.903442 188.533524 553.989319 188.006546 C 553.989319 188.006546 553.971252 188.077591 553.743958 187.588715 C 553.433289 187.423737 553.122559 187.258759 552.909363 187.083054 C 552.909363 187.083054 552.881836 187.177185 552.871887 186.43399 C 551.86261 185.992355 550.853394 185.550705 549.941528 185.063583 C 549.941528 185.063583 549.899353 185.162476 549.880615 184.426392 C 548.206543 183.650299 546.53241 182.874191 544.941467 182.073517 C 544.941467 182.073517 544.936646 182.160095 544.722839 181.485153 C 532.950317 173.839523 519.933167 171.936539 506.289886 173.475266 C 502.813385 173.867355 499.445404 175.22197 496.028076 176.05249 C 496.028076 176.05249 496.107758 176.071259 495.327209 176.019714 C 493.576385 176.753143 491.825592 177.486557 490.07196 178.100906 C 490.07196 178.100906 490.185577 178.136581 489.404449 178.053085 C 487.961243 178.763748 486.518036 179.474411 485.064728 180.092667 C 485.064728 180.092667 485.154236 180.117783 484.415375 180.044113 C 483.306396 180.765121 482.197418 181.486115 481.077667 182.102219 C 481.077667 182.102219 481.178925 182.131577 480.50943 182.097412 C 480.047943 182.491867 479.586487 182.886322 479.102631 183.154053 C 479.102631 183.154053 479.226471 183.189072 478.534088 183.107346 C 477.703918 183.779037 476.873779 184.450745 476.032898 185.039352 C 476.032898 185.039352 476.110107 185.07193 475.36438 185.036865 C 474.611084 185.744202 473.857788 186.451553 473.078766 187.073502 C 473.078766 187.073502 473.167603 187.081314 472.658813 187.234482 C 472.444702 187.505981 472.23056 187.777481 472.008972 187.994766 C 472.008972 187.994766 472.053314 188.026978 471.308716 188.029404 C 470.591431 188.760574 469.874146 189.491745 469.120361 190.112106 C 469.120361 190.112106 469.236115 190.126862 468.690857 190.27066 C 468.485992 190.572678 468.281128 190.874695 468.067657 191.083389 C 468.067657 191.083389 468.15799 191.108429 467.49173 191.106201 C 467.280548 191.565704 467.069366 192.025208 466.653748 192.793457 C 466.653748 192.793457 466.301758 192.908447 465.931122 192.567368 C 465.853149 192.646637 465.699341 192.741333 465.711731 192.802246 C 465.746277 192.972061 465.84967 193.127838 465.805878 193.659393 C 465.805878 193.659393 465.474609 193.863647 464.902161 193.57457 C 464.623932 194.085892 464.345703 194.597214 464.020691 195.024719 C 464.020691 195.024719 464.107361 195.065964 463.44751 195.095093 C 463.255951 195.560013 463.064392 196.024933 462.719604 196.707916 C 462.719604 196.707916 462.509033 196.871307 461.905792 196.588989 C 461.664886 197.136017 461.423981 197.683044 461.146606 198.11882 C 461.146606 198.11882 461.261475 198.141327 460.586823 198.2724 C 460.270355 199.003479 459.953918 199.734558 459.527283 200.481857 C 459.527283 200.481857 459.546051 200.591614 458.87915 200.465744 C 458.62677 201.033707 458.374359 201.601654 458.070892 202.064865 C 458.070892 202.064865 458.175232 202.11676 457.561371 202.08371 C 457.368439 202.724197 457.175507 203.364685 456.943756 204.500275 C 456.784607 204.831146 456.522003 205.010727 455.490173 205.256409 C 455.056885 206.251968 454.623596 207.247543 454.152954 208.100983 C 454.152954 208.100983 454.298615 208.120468 453.669464 208.343079 C 453.482208 208.95224 453.294952 209.561417 453.078735 210.057877 C 453.078735 210.057877 453.195099 210.059433 452.593628 210.33493 C 452.437744 210.953247 452.28186 211.571548 452.094513 212.06572 C 452.094513 212.06572 452.222504 212.070038 451.610535 212.343491 C 451.462158 212.967468 451.313782 213.591431 451.134766 214.099365 C 451.134766 214.099365 451.252808 214.120895 450.531433 214.296356 C 445.1651 223.722961 444.439667 234.175781 444.153046 244.635666 C 444.077362 247.397659 445.437714 250.199005 446.045898 252.98172 C 446.045898 252.98172 446.061096 252.890213 446.016846 253.742432 C 447.176056 257.119141 448.335266 260.49585 449.932953 264.405518 C 459.698761 288.534363 477.343353 302.901154 503.272552 308.024994 C 510.601715 308.143127 517.937439 308.474609 525.256165 308.251495 C 527.497009 308.183136 529.691467 306.593597 531.917175 305.858795 C 531.917175 305.858795 531.764038 305.81842 532.507385 305.928558 C 533.325012 305.556549 534.142639 305.18457 534.951172 304.934448 C 534.951172 304.934448 534.833862 304.900146 535.579773 304.938904 C 536.344666 304.513641 537.109497 304.088379 537.891907 303.825745 C 537.891907 303.825745 537.734924 303.779816 538.345337 303.905334 C 538.862305 303.57312 539.379272 303.240906 540.260315 302.304077 C 565.816162 290.083191 579.166077 269.848206 579.975098 241.503922 C 580.36438 227.864807 576.007935 215.531601 569.334106 203.770126 C 569.087524 203.650711 568.841003 203.531296 568.549438 203.222839 C 568.549438 203.222839 568.636108 203.396759 568.667297 202.806107 M 254.90033 703.543762 C 254.660004 704.773254 254.419678 706.002686 254.14357 707.087402 C 254.14357 707.087402 254.291794 707.103577 253.588867 707.381775 C 253.113892 709.326843 252.638916 711.271973 252.127533 713.089844 C 252.127533 713.089844 252.259216 713.102112 251.569382 713.360596 C 250.745117 716.292297 249.920868 719.223999 249.066757 722.053589 C 249.066757 722.053589 249.17308 722.050354 248.523422 722.360046 C 247.065521 726.973328 245.60762 731.58667 244.116287 736.082214 C 244.116287 736.082214 244.238129 736.093323 243.569534 736.367859 C 242.708511 738.908569 241.847488 741.44928 240.719025 744.107178 C 240.816254 744.076294 240.913467 744.04541 241.417007 743.975586 C 241.417007 743.975586 241.824341 744.002075 242.015198 744.036926 C 242.015198 744.036926 241.977768 744.227295 242.150787 744.650513 C 242.150787 744.650513 242.288834 745.086365 242.759979 745.707153 C 257.171753 745.803955 271.583496 745.900757 286.631348 745.681824 C 288.037292 740.722168 289.443268 735.762573 290.886078 730.920227 C 290.886078 730.920227 290.763306 730.913879 291.444977 730.618774 C 293.572845 722.341003 295.700714 714.063232 297.866638 705.913452 C 297.866638 705.913452 297.733521 705.9021 298.419891 705.58551 C 299.279724 702.406067 301.521912 701.917664 304.507477 701.93988 C 320.658508 702.06012 336.819153 702.299561 352.958923 701.856689 C 359.979004 701.664001 366.675323 700.4823 368.109528 709.938599 C 368.109528 709.938599 368.136353 709.816833 368.046326 710.606506 C 368.482086 711.692383 368.917847 712.778198 369.201904 713.904724 C 369.201904 713.904724 369.225616 713.749451 369.076355 714.577759 C 369.803375 716.687744 370.530426 718.797791 371.130127 720.928101 C 371.130127 720.928101 371.154785 720.801575 371.05191 721.594604 C 371.493927 722.678406 371.935974 723.762207 372.219727 724.891907 C 372.219727 724.891907 372.244415 724.729004 372.079681 725.595947 C 373.717438 731.730652 375.355164 737.865295 377.229431 744.535706 C 377.820801 745.020752 378.41217 745.505859 379.939972 746.002625 C 393.316467 746.004211 406.693146 746.034058 420.069305 745.968811 C 421.615326 745.961243 423.158813 745.424561 425.426147 744.959229 C 428.068573 740.702148 424.660339 738.108582 422.855377 735.093445 C 422.855377 735.093445 422.820343 735.226746 422.934753 734.389709 C 420.238647 726.946106 417.542542 719.502563 414.934052 712.061646 C 414.934052 712.061646 414.903778 712.14386 414.959198 711.291138 C 414.908875 710.138428 415.10434 708.908875 414.771271 707.844604 C 409.845886 692.107361 404.901611 676.375488 399.815826 660.689636 C 399.060089 658.358887 397.558929 656.269897 396.029144 653.358459 C 393.067322 643.57489 390.105499 633.79126 387.652191 623.50061 C 387.628021 622.704834 387.775208 621.857605 387.554321 621.12085 C 383.428375 607.359619 379.298737 593.598999 375.03772 579.879395 C 374.600159 578.470459 373.322357 577.322449 372.030853 575.358704 C 370.741943 570.903076 369.453064 566.447449 368.664795 561.471069 C 368.089447 558.781677 367.776367 556.001953 366.887238 553.420654 C 364.650391 546.92688 362.153503 540.522644 359.892853 534.072998 C 359.892853 534.072998 359.861938 534.201721 359.912262 533.343567 C 358.592804 532.561707 357.28064 531.114441 355.952789 531.099976 C 341.227478 530.938965 326.499237 530.949646 311.773499 531.091309 C 310.519775 531.103394 309.278259 532.388489 308.012146 533.013306 C 308.012146 533.013306 308.08316 533.020935 307.40625 533.308716 C 306.31723 537.26886 305.228241 541.229004 304.105194 545.078308 C 304.105194 545.078308 304.220917 545.085083 303.548767 545.374817 C 301.400604 552.96936 299.252411 560.563843 297.070251 568.055908 C 297.070251 568.055908 297.17804 568.049622 296.522614 568.379944 C 295.847931 571.348694 295.173279 574.317444 294.556793 577.367126 C 294.556793 577.367126 294.579895 577.46405 293.827148 577.460083 C 293.232513 579.358948 292.637848 581.257812 292.014099 583.585815 C 292.014099 583.585815 291.885651 583.996277 291.339355 584.459656 C 290.029816 588.380676 288.56073 592.257202 287.452606 596.234314 C 286.172089 600.830261 285.209564 605.514771 284.085938 610.053467 C 284.085938 610.053467 284.195343 610.06189 283.532959 610.388489 C 280.351044 620.27179 277.030823 630.113525 274.037292 640.053528 C 272.141998 646.346924 270.733673 652.786987 269.083618 659.050598 C 269.083618 659.050598 269.196472 659.057495 268.514557 659.392822 C 268.053925 661.657104 267.593262 663.921326 267.097046 666.072205 C 267.097046 666.072205 267.215942 666.074097 266.54599 666.36908 C 264.761719 671.4729 262.822174 676.529724 261.257385 681.699951 C 260.45105 684.364258 260.311401 687.230408 259.936462 690.55304 C 259.841431 690.710449 259.746399 690.86792 259.312317 691.049194 C 259.312317 691.049194 258.975403 691.096008 258.364227 691.492737 C 257.93927 693.710754 257.514282 695.928772 257.05896 698.051147 C 257.05896 698.051147 257.159088 698.044617 256.498657 698.365723 C 256.194397 699.968872 255.890152 701.572021 255.733536 703.397705 C 255.733536 703.397705 255.678635 703.658997 254.90033 703.543762 M 500.749847 628.550659 C 500.443817 628.378662 500.137787 628.206665 499.394196 628.007141 C 499.394196 628.007141 498.985413 627.848816 498.349976 627.318726 C 497.866425 627.216553 497.382965 627.025513 496.899323 627.025024 C 474.814392 627.002258 452.729462 626.979431 430.644684 627.033997 C 429.434998 627.036987 428.226959 627.701782 426.949768 628.986328 C 426.97757 641.635803 427.005371 654.285278 427.562317 667.582397 C 428.039917 667.709045 428.517395 667.946045 428.995178 667.946655 C 451.6409 667.976257 474.286713 668.000427 496.932312 667.947327 C 497.955811 667.944946 498.977631 667.22229 500.006195 667.004028 C 500.006195 667.004028 499.837433 667.012268 500.498383 666.472351 C 500.655243 653.99469 500.812103 641.51709 500.749847 628.550659 M 569.063721 532.875 C 555.129028 532.875 541.194336 532.875 527.054688 532.875 C 527.054688 603.481445 527.054688 673.6427 527.054688 744.002319 C 541.524536 744.002319 555.784851 744.002319 570.613342 743.39325 C 570.740784 742.080811 570.979309 740.768433 570.979675 739.455933 C 570.998291 672.196655 571.003418 604.937317 570.955139 537.67804 C 570.953979 536.122253 570.32666 534.566772 569.063721 532.875 M 610.951599 676.5 C 610.951599 628.780701 610.951599 581.061401 610.951599 533.342163 C 610.72522 533.343323 610.49884 533.344482 610.272461 533.345703 C 610.272461 603.521667 610.272461 673.697632 610.272461 743.873596 C 610.498657 743.874146 610.724854 743.874695 610.95105 743.875305 C 610.95105 721.750183 610.95105 699.625122 610.951599 676.5 M 525.946655 684.5 C 525.946655 634.43689 525.946655 584.373718 525.946655 534.310608 C 525.721497 534.311768 525.496399 534.312866 525.27124 534.314026 C 525.27124 603.8396 525.27124 673.365173 525.27124 742.890808 C 525.496094 742.891479 525.720886 742.892212 525.94574 742.892883 C 525.94574 723.761902 525.94574 704.630981 525.946655 684.5 M 638.5 531.954834 C 654.898438 531.954834 671.296875 531.954834 687.695251 531.954834 C 687.691833 531.728577 687.688416 531.502258 687.684998 531.276001 C 662.826477 531.276001 637.967957 531.276001 613.109375 531.276001 C 613.108582 531.502014 613.107727 531.728027 613.106934 531.954041 C 621.237976 531.954041 629.368958 531.954041 638.5 531.954834 M 667.499878 745.047974 C 649.383728 745.047974 631.267578 745.047974 613.151428 745.047974 C 613.153931 745.268066 613.156433 745.488159 613.158997 745.708252 C 638.053589 745.708252 662.948181 745.708252 687.842773 745.708252 C 687.844299 745.488342 687.845886 745.268433 687.847412 745.048523 C 681.398193 745.048523 674.948975 745.048523 667.499878 745.047974 M 547.500244 531.967163 C 554.563416 531.967163 561.626587 531.967163 568.689758 531.967163 C 568.681396 531.737183 568.672974 531.507202 568.664551 531.277222 C 555.147461 531.277222 541.63031 531.277222 528.113159 531.277222 C 528.111633 531.507141 528.110168 531.737122 528.108704 531.967041 C 534.239319 531.967041 540.369934 531.967041 547.500244 531.967163 M 540.515015 745.056152 C 536.410095 745.056152 532.305176 745.056152 528.200256 745.056152 C 528.211304 745.26709 528.222412 745.478027 528.233459 745.688965 C 541.745117 745.688965 555.256714 745.688965 568.768372 745.688965 C 568.767944 745.477966 568.767456 745.267029 568.766968 745.05603 C 559.681213 745.05603 550.595398 745.05603 540.515015 745.056152 z" stroke-linecap="round" />
</g>
<g transform="matrix(1 0 0 1 718.29 671.11)"  >
<path style="stroke: none; stroke-width: 1; stroke-dasharray: none; stroke-linecap: butt; stroke-dashoffset: 0; stroke-linejoin: miter; stroke-miterlimit: 4; fill: rgb(255,157,23); fill-rule: nonzero; opacity: 1;" vector-effect="non-scaling-stroke"  transform=" translate(-694.43, -638.88)" d="M 731.879211 619.002075 C 731.879211 619.002075 732.010132 619.411438 732.018921 620.104187 C 731.659058 635.770081 731.290466 650.743164 730.921875 665.716309 C 729.412781 674.168579 727.042419 682.309204 721.829651 689.312805 C 713.840332 700.046936 702.965637 705.630859 689.056396 706.638245 C 677.872131 706.11731 667.410278 705.935608 656.954163 705.300781 C 656.962646 662.575623 656.965271 620.30365 656.96875 578.031677 C 656.968811 576.700317 656.602844 575.210327 657.082336 574.080688 C 657.595947 572.870605 658.940857 571.085938 659.868103 571.11853 C 672.932678 571.576904 686.036804 571.835266 699.021362 573.193359 C 704.223633 573.737488 709.157715 576.845154 714.213806 578.786011 C 714.213806 578.786011 714.045837 578.940552 714.192261 579.112183 C 714.663757 579.411133 714.98877 579.538513 715.313843 579.665894 C 715.313843 579.665894 714.991089 579.969604 715.173523 580.152222 C 716.987183 581.823669 718.618408 583.3125 720.249634 584.801331 C 720.249634 584.801331 720.096802 584.915283 720.205078 585.10144 C 720.60083 585.485229 720.888306 585.682983 721.175842 585.880676 C 721.175842 585.880676 721.041199 585.960022 721.091125 586.271057 C 722.128113 588.635559 723.279358 590.62793 724.07135 592.754028 C 726.452271 599.145264 728.693176 605.588562 730.993286 612.424683 C 731.291687 614.892639 731.585449 616.947327 731.879211 619.002075 z" stroke-linecap="round" />
</g>
<g transform="matrix(1 0 0 1 360.37 658.61)"  >
<path style="stroke: none; stroke-width: 1; stroke-dasharray: none; stroke-linecap: butt; stroke-dashoffset: 0; stroke-linejoin: miter; stroke-miterlimit: 4; fill: rgb(255,157,23); fill-rule: nonzero; opacity: 1;" vector-effect="non-scaling-stroke"  transform=" translate(-332.32, -625.34)" d="M 310.102051 659.993835 C 311.745789 654.549866 313.389557 649.105896 315.547729 643.228455 C 319.0401 633.909546 322.16391 625.06958 324.955505 616.125977 C 327.794067 607.032043 330.305359 597.835999 332.959961 588.684692 C 335.927124 596.593262 337.844666 604.45105 340.081604 612.216858 C 340.858032 614.912292 342.425751 617.379761 343.63208 619.951355 C 347.395935 633.374695 351.15979 646.797974 354.546753 660.800659 C 353.707214 661.562256 353.245239 661.901611 352.781647 661.90387 C 339.794464 661.966187 326.806671 662.049927 313.820557 661.939209 C 312.575623 661.92865 311.341309 660.671997 310.102051 659.993835 z" stroke-linecap="round" />
</g>
</svg>